<svg width="13" height="30" viewBox="0 0 13 30" fill="none" xmlns="http://www.w3.org/2000/svg">
<g id="check-solid 43" clip-path="url(#clip0_74_543)">
<path id="Vector" d="M12.727 6.17627C13.0897 6.90869 13.0897 8.09814 12.727 8.83057L5.2984 23.8306C4.93567 24.563 4.34661 24.563 3.98389 23.8306L0.269601 16.3306C-0.0931222 15.5981 -0.0931222 14.4087 0.269601 13.6763C0.632324 12.9438 1.22139 12.9438 1.58411 13.6763L4.64259 19.8462L11.4154 6.17627C11.7781 5.44385 12.3671 5.44385 12.7299 6.17627H12.727Z" fill="#8D8D8D"/>
<path id="Vector_2" d="M12.727 6.17627C13.0897 6.90869 13.0897 8.09814 12.727 8.83057L5.2984 23.8306C4.93567 24.563 4.34661 24.563 3.98389 23.8306L0.269601 16.3306C-0.0931222 15.5981 -0.0931222 14.4087 0.269601 13.6763C0.632324 12.9438 1.22139 12.9438 1.58411 13.6763L4.64259 19.8462L11.4154 6.17627C11.7781 5.44385 12.3671 5.44385 12.7299 6.17627H12.727Z" fill="#8D8D8D"/>
</g>
<defs>
<clipPath id="clip0_74_543">
<rect width="13" height="30" fill="white"/>
</clipPath>
</defs>
</svg>
